<?xml version="1.0" standalone="no"?>
<!DOCTYPE svg PUBLIC "-//W3C//DTD SVG 20010904//EN"
 "http://www.w3.org/TR/2001/REC-SVG-20010904/DTD/svg10.dtd">
<svg version="1.0" xmlns="http://www.w3.org/2000/svg"
 width="512.000000pt" height="512.000000pt" viewBox="0 0 512.000000 512.000000"
 preserveAspectRatio="xMidYMid meet">

<g transform="translate(0.000000,512.000000) scale(0.100000,-0.100000)"
fill="#000000" stroke="none">
<path d="M2310 4916 c-447 -52 -837 -209 -1195 -479 -102 -78 -308 -279 -392
-382 -653 -812 -710 -1928 -142 -2796 322 -493 840 -859 1409 -997 223 -55
324 -66 565 -66 249 -1 374 14 591 69 928 236 1618 1005 1761 1960 24 164 24
515 0 670 -22 146 -67 325 -112 455 -46 131 -155 356 -230 474 -30 49 -54 90
-53 91 2 2 48 25 104 53 61 31 113 64 132 86 94 108 53 275 -82 331 -29 12
-66 16 -140 15 -84 -2 -111 1 -161 20 -79 29 -209 37 -285 16 l-55 -14 -50 38
c-296 226 -681 385 -1075 445 -146 22 -447 27 -590 11z m574 -150 c335 -53
636 -169 914 -353 45 -30 82 -57 82 -61 0 -4 -67 -46 -148 -94 l-147 -87 -328
124 c-181 69 -341 125 -357 125 -22 0 -55 -23 -144 -102 -118 -103 -132 -122
-122 -161 3 -12 86 -92 185 -177 99 -85 180 -157 180 -160 0 -3 -184 -116
-410 -252 l-410 -246 -87 40 c-150 70 -261 64 -373 -18 -63 -47 -80 -81 -59
-117 20 -36 394 -360 446 -387 41 -21 62 -25 137 -25 l89 0 480 243 c264 134
481 242 483 240 2 -2 35 -120 75 -263 43 -157 79 -267 90 -279 10 -10 29 -18
43 -18 31 0 292 108 308 128 7 9 24 157 42 374 l31 360 248 125 248 126 60
-93 c150 -230 287 -583 315 -812 8 -63 13 -59 -100 -71 -178 -17 -370 -76
-609 -185 -219 -100 -297 -124 -401 -123 -94 0 -162 17 -319 78 -163 64 -230
78 -356 73 -81 -3 -116 -9 -154 -26 -75 -34 -129 -84 -165 -152 -50 -93 -60
-175 -61 -480 -1 -346 -16 -659 -35 -738 -20 -82 -56 -152 -98 -189 -19 -17
-73 -43 -126 -62 -356 -124 -548 -285 -606 -507 -8 -31 -16 -59 -18 -61 -6 -5
-239 112 -314 158 -93 58 -110 75 -144 141 -31 61 -55 76 -104 64 -21 -5 -37
3 -91 51 -125 110 -285 303 -386 465 -299 482 -405 1064 -293 1613 30 147 43
195 54 195 5 0 53 -33 108 -73 132 -97 207 -130 293 -130 83 -1 148 27 213 91
84 82 117 159 172 402 22 95 56 172 100 226 46 55 161 132 261 174 119 49 152
67 202 113 82 76 87 97 87 362 0 154 5 247 13 282 l13 51 80 22 c105 28 260
58 362 69 113 13 432 5 551 -13z m-1157 -188 c-5 -31 -7 -127 -3 -230 8 -235
0 -253 -154 -317 -188 -79 -318 -169 -387 -268 -55 -81 -77 -138 -118 -308
-51 -214 -102 -298 -196 -325 -56 -16 -123 11 -245 97 -61 43 -120 85 -133 93
l-23 16 27 64 c178 423 462 767 843 1023 75 50 372 207 392 207 4 0 3 -24 -3
-52z m2627 -301 c55 -25 64 -27 157 -20 95 6 101 5 124 -17 36 -34 33 -73 -7
-103 -29 -22 -709 -367 -723 -367 -3 0 -3 40 1 88 7 88 6 89 -21 110 -15 12
-35 22 -43 22 -17 0 -576 -312 -604 -338 -23 -20 -23 -61 1 -144 l19 -68 -476
-241 c-515 -261 -541 -271 -611 -235 -17 9 -91 69 -164 133 -185 162 -175 152
-157 163 37 24 106 11 216 -41 92 -43 113 -50 135 -42 25 10 276 160 1369 821
250 151 480 283 510 294 80 27 196 20 274 -15z m-1197 -93 c126 -48 239 -91
252 -96 22 -8 11 -17 -124 -99 -82 -49 -154 -88 -160 -85 -5 2 -79 64 -164
137 l-153 134 52 47 c28 27 56 48 61 48 5 0 111 -39 236 -86z m568 -810 c-20
-225 -39 -412 -43 -416 -8 -8 -126 -58 -129 -54 -1 1 -43 149 -93 330 -59 213
-87 333 -81 339 12 12 375 216 378 213 2 -1 -13 -187 -32 -412z m1061 -681
c10 -79 -2 -335 -21 -463 -145 -963 -911 -1729 -1875 -1875 -309 -46 -683 -20
-961 68 l-74 23 1 52 c2 76 41 148 122 224 81 75 175 129 337 192 171 67 199
81 245 122 49 44 82 99 110 180 40 115 50 228 56 664 3 228 10 446 15 483 23
164 102 224 283 215 69 -4 112 -12 176 -36 47 -17 123 -45 169 -62 250 -91
391 -75 738 84 77 35 179 78 226 95 113 40 308 81 429 90 13 1 18 -11 24 -56z"/>
<path d="M4403 3424 c-18 -18 -24 -32 -20 -52 9 -47 96 -265 109 -274 28 -17
77 -9 94 17 21 32 16 63 -31 190 -51 140 -96 175 -152 119z"/>
<path d="M1618 2802 c-74 -75 -85 -105 -48 -142 39 -39 76 -27 152 48 74 75
85 105 48 142 -39 39 -76 27 -152 -48z"/>
<path d="M1409 2540 c-22 -13 -108 -147 -155 -243 -33 -66 -36 -79 -26 -102
27 -58 96 -55 130 6 9 18 47 83 85 145 37 63 67 125 67 138 0 15 -11 33 -26
45 -29 23 -50 26 -75 11z"/>
<path d="M1138 2010 c-9 -6 -26 -35 -37 -65 -26 -70 -71 -246 -71 -279 0 -56
77 -88 114 -47 9 10 30 70 46 132 16 63 36 133 44 157 11 29 12 50 6 67 -15
40 -64 56 -102 35z"/>
<path d="M1033 1438 c-41 -20 -48 -58 -35 -207 13 -163 23 -195 63 -212 27
-10 34 -9 57 8 31 23 32 37 17 256 -7 119 -10 129 -33 147 -28 22 -37 23 -69
8z"/>
</g>
</svg>
